<?xml version="1.0" standalone="yes"?>

<svg version="1.1" viewBox="0.0 0.0 400.0 400.0" fill="none" stroke="none" stroke-linecap="square" stroke-miterlimit="10" xmlns="http://www.w3.org/2000/svg" xmlns:xlink="http://www.w3.org/1999/xlink"><clipPath id="p.0"><path d="m0 0l400.0 0l0 400.0l-400.0 0l0 -400.0z" clip-rule="nonzero"></path></clipPath><g clip-path="url(#p.0)"><path fill="#000000" fill-opacity="0.0" d="m0 0l400.0 0l0 400.0l-400.0 0z" fill-rule="evenodd"></path><path fill="#000000" fill-opacity="0.0" d="m13.984252 200.0l0 0c0 -102.73366 83.28209 -186.01575 186.01575 -186.01575l0 0c49.334442 0 96.648285 19.59803 131.53299 54.48275c34.884735 34.88472 54.482758 82.198555 54.482758 131.53299l0 0c0 102.73367 -83.282074 186.01575 -186.01575 186.01575l0 0c-102.73366 0 -186.01575 -83.282074 -186.01575 -186.01575z" fill-rule="evenodd"></path><path stroke="#000000" stroke-width="12.0" stroke-linejoin="round" stroke-linecap="butt" d="m13.984252 200.0l0 0c0 -102.73366 83.28209 -186.01575 186.01575 -186.01575l0 0c49.334442 0 96.648285 19.59803 131.53299 54.48275c34.884735 34.88472 54.482758 82.198555 54.482758 131.53299l0 0c0 102.73367 -83.282074 186.01575 -186.01575 186.01575l0 0c-102.73366 0 -186.01575 -83.282074 -186.01575 -186.01575z" fill-rule="evenodd"></path><path fill="#000000" d="m93.427826 135.28871l74.23622 0l0 15.307083l-74.23622 0z" fill-rule="evenodd"></path><path fill="#c283ac" d="m167.66408 135.28871l138.89763 0l0 15.307083l-138.89763 0z" fill-rule="evenodd"></path><path fill="#000000" d="m93.42791 192.34645l149.29132 0l0 15.307083l-149.29132 0z" fill-rule="evenodd"></path><path fill="#c283ac" d="m242.72841 192.34645l63.842514 0l0 15.307083l-63.842514 0z" fill-rule="evenodd"></path><path fill="#000000" d="m93.4279 255.65092l114.897644 0l0 15.307083l-114.897644 0z" fill-rule="evenodd"></path><path fill="#c283ac" d="m208.32307 255.65092l98.23622 0l0 15.307083l-98.23622 0z" fill-rule="evenodd"></path></g></svg>

