<?xml version="1.0" standalone="yes"?>

<svg version="1.1" viewBox="0.0 0.0 400.0 400.0" fill="none" stroke="none" stroke-linecap="square" stroke-miterlimit="10" xmlns="http://www.w3.org/2000/svg" xmlns:xlink="http://www.w3.org/1999/xlink"><clipPath id="p.0"><path d="m0 0l400.0 0l0 400.0l-400.0 0l0 -400.0z" clip-rule="nonzero"></path></clipPath><g clip-path="url(#p.0)"><path fill="#000000" fill-opacity="0.0" d="m0 0l400.0 0l0 400.0l-400.0 0z" fill-rule="evenodd"></path><path fill="#000000" fill-opacity="0.0" d="m13.984252 200.0l0 0c0 -102.73366 83.28209 -186.01575 186.01575 -186.01575l0 0c49.334442 0 96.648285 19.59803 131.53299 54.48275c34.884735 34.88472 54.482758 82.198555 54.482758 131.53299l0 0c0 102.73367 -83.282074 186.01575 -186.01575 186.01575l0 0c-102.73366 0 -186.01575 -83.282074 -186.01575 -186.01575z" fill-rule="evenodd"></path><path stroke="#000000" stroke-width="24.0" stroke-linejoin="round" stroke-linecap="butt" d="m13.984252 200.0l0 0c0 -102.73366 83.28209 -186.01575 186.01575 -186.01575l0 0c49.334442 0 96.648285 19.59803 131.53299 54.48275c34.884735 34.88472 54.482758 82.198555 54.482758 131.53299l0 0c0 102.73367 -83.282074 186.01575 -186.01575 186.01575l0 0c-102.73366 0 -186.01575 -83.282074 -186.01575 -186.01575z" fill-rule="evenodd"></path><path fill="#000000" d="m93.43307 120.666405l74.23623 0l0 27.055122l-74.23623 0z" fill-rule="evenodd"></path><path fill="#c283ac" d="m167.66989 120.666405l138.89764 0l0 27.055122l-138.89764 0z" fill-rule="evenodd"></path><path fill="#000000" d="m93.4279 186.472l149.29134 0l0 27.055115l-149.29134 0z" fill-rule="evenodd"></path><path fill="#c283ac" d="m242.72955 186.472l63.8425 0l0 27.055115l-63.8425 0z" fill-rule="evenodd"></path><path fill="#000000" d="m93.43314 252.27838l114.89764 0l0 27.055115l-114.89764 0z" fill-rule="evenodd"></path><path fill="#c283ac" d="m208.32918 252.27838l98.23622 0l0 27.055115l-98.23622 0z" fill-rule="evenodd"></path></g></svg>

